<?xml version="1.0" encoding="UTF-8" standalone="no"?>
<svg
   xmlns:dc="http://purl.org/dc/elements/1.1/"
   xmlns:cc="http://creativecommons.org/ns#"
   xmlns:rdf="http://www.w3.org/1999/02/22-rdf-syntax-ns#"
   xmlns:svg="http://www.w3.org/2000/svg"
   xmlns="http://www.w3.org/2000/svg"
   width="21.479689mm"
   height="17.440228mm"
   viewBox="0 0 76.109133 61.796082"
   id="svg12878"
   version="1.1">
  <defs
     id="defs12880" />
  <metadata
     id="metadata12883">
    <rdf:RDF>
      <cc:Work
         rdf:about="">
        <dc:format>image/svg+xml</dc:format>
        <dc:type
           rdf:resource="http://purl.org/dc/dcmitype/StillImage" />
        <dc:title></dc:title>
      </cc:Work>
    </rdf:RDF>
  </metadata>
  <g
     transform="matrix(1.25,0,0,-1.25,82.66863,31.730948)"
     id="g4405">
    <path
       id="path4407"
       style="fill:#ffffff;fill-opacity:1;fill-rule:nonzero;stroke:none"
       d="M 0,0 0,-8.915 C 0,-9.5 0.479,-9.979 1.065,-9.979 l 4.083,0 c 0.585,0 1.064,0.479 1.064,1.064 l 0,8.915 c 0,0.586 -0.479,1.065 -1.064,1.065 l -4.083,0 C 0.479,1.065 0,0.586 0,0" />
  </g>
  <g
     transform="matrix(1.25,0,0,-1.25,115.06637,12.095948)"
     id="g4411">
    <path
       id="path4413"
       style="fill:#ffffff;fill-opacity:1;fill-rule:nonzero;stroke:none"
       d="m 0,0 -12.097,0 -1.658,0 c -0.903,0 -1.643,-0.739 -1.643,-1.643 l 0,-5.756 c 0,-0.903 0.74,-1.643 1.643,-1.643 l 1.658,0 2.586,0 c 0,1.455 1.179,2.634 2.634,2.634 1.454,0 2.633,-1.179 2.633,-2.634 l 4.244,0 c 0.904,0 1.643,0.74 1.643,1.643 l 0,5.756 C 1.643,-0.739 0.904,0 0,0" />
  </g>
  <g
     transform="translate(-237.18005,5.825078)"
     id="g4260">
    <g
       id="g4379"
       transform="matrix(1.25,0,0,-1.25,240.26917,33.47337)">
      <path
         d="m 0,0 41.771,0 c 0.585,0 1.064,0.479 1.064,1.065 l 0,22.564 c 0,0.586 -0.479,1.065 -1.064,1.065 L 0,24.694 c -0.586,0 -1.065,-0.479 -1.065,-1.065 l 0,-22.564 C -1.065,0.479 -0.586,0 0,0"
         style="fill:#ffffff;fill-opacity:1;fill-rule:nonzero;stroke:none"
         id="path4381" />
    </g>
    <path
       d="m 240.6963,31.7145 51.35875,0 0,-27.35125 -51.35875,0 0,27.35125 z m 51.78625,3.51625 -52.21375,0 c -1.7025,0 -3.08875,-1.385 -3.08875,-3.0875 l 0,-28.20625 c 0,-1.70375 1.38625,-3.09 3.08875,-3.09 l 52.21375,0 c 1.7025,0 3.08875,1.38625 3.08875,3.09 l 0,28.20625 c 0,1.7025 -1.38625,3.0875 -3.08875,3.0875"
       style="fill:#f29107;fill-opacity:1;fill-rule:nonzero;stroke:none"
       id="path4383" />
    <g
       id="g4385"
       transform="matrix(1.25,0,0,-1.25,286.10692,38.2745)">
      <path
         d="M 0,0 0,-2.396 C 0,-2.981 0.479,-3.46 1.065,-3.46 l 18.21,0 c 0.585,0 1.065,0.479 1.065,1.064 l 0,2.396"
         style="fill:#ffffff;fill-opacity:1;fill-rule:nonzero;stroke:none"
         id="path4387" />
    </g>
    <g
       id="g4389"
       transform="matrix(1.25,0,0,-1.25,310.20043,44.35837)">
      <path
         d="m 0,0 -18.21,0 c -1.363,0 -2.471,1.109 -2.471,2.472 l 0,2.396 2.813,0 0,-2.055 17.526,0 0,2.055 2.813,0 0,-2.396 C 2.471,1.109 1.362,0 0,0"
         style="fill:#e20717;fill-opacity:1;fill-rule:nonzero;stroke:none"
         id="path4391" />
    </g>
    <g
       id="g4393"
       transform="matrix(1.25,0,0,-1.25,287.43792,39.58712)">
      <path
         d="m 0,0 18.21,0 c 0.586,0 1.065,0.479 1.065,1.065 l 0,9.311 c 0,0.586 -0.479,1.065 -1.065,1.065 l -18.21,0 c -0.586,0 -1.065,-0.479 -1.065,-1.065 l 0,-9.311 C -1.065,0.479 -0.586,0 0,0"
         style="fill:#ffffff;fill-opacity:1;fill-rule:nonzero;stroke:none"
         id="path4395" />
    </g>
    <path
       d="m 287.86505,37.82825 21.9075,0 0,-10.785 -21.9075,0 0,10.785 z m 22.335,3.51625 -22.7625,0 c -1.7025,0 -3.08875,-1.385 -3.08875,-3.0875 l 0,-11.64 c 0,-1.7025 1.38625,-3.09 3.08875,-3.09 l 22.7625,0 c 1.70375,0 3.08875,1.3875 3.08875,3.09 l 0,11.64 c 0,1.7025 -1.385,3.0875 -3.08875,3.0875"
       style="fill:#e20717;fill-opacity:1;fill-rule:nonzero;stroke:none"
       id="path4397" />
    <g
       id="g4399"
       transform="matrix(1.25,0,0,-0.788897,292.29366,5.6114947)">
      <path
         d="m 0,0 13.563,0 c 0.585,0 1.065,0.479 1.065,1.065 l 0,9.639 c 0,0.586 -0.48,1.065 -1.065,1.065 L 0,11.769 c -0.586,0 -1.065,-0.479 -1.065,-1.065 l 0,-9.639 C -1.065,0.479 -0.586,0 0,0"
         style="fill:#ffffff;fill-opacity:1;fill-rule:nonzero;stroke:none"
         id="path4401" />
    </g>
    <g
       id="g4254">
      <rect
         y="29.358372"
         x="247.5"
         height="15"
         width="20"
         id="rect4246"
         style="opacity:1;fill:#ffffff;fill-opacity:1;fill-rule:nonzero;stroke:none;stroke-width:2;stroke-linecap:round;stroke-linejoin:round;stroke-miterlimit:4;stroke-dasharray:none;stroke-dashoffset:0;stroke-opacity:1" />
      <path
         id="path4403"
         style="fill:#1f9cd8;fill-opacity:1;fill-rule:nonzero;stroke:none"
         d="m 249.44273,42.513504 16.09875,0 0,-11.195 -16.09875,0 0,11.195 z m 16.52625,3.51625 -16.9525,0 c -1.70375,0 -3.09,-1.38625 -3.09,-3.09 l 0,-12.04875 c 0,-1.70375 1.38625,-3.08875 3.09,-3.08875 l 16.9525,0 c 1.70375,0 3.08875,1.385 3.08875,3.08875 l 0,12.04875 c 0,1.70375 -1.385,3.09 -3.08875,3.09" />
    </g>
    <g
       id="g4250">
      <rect
         y="40.858372"
         x="262.5"
         height="12.465535"
         width="8.3259363"
         id="rect4248"
         style="opacity:1;fill:#ffffff;fill-opacity:1;fill-rule:nonzero;stroke:none;stroke-width:2;stroke-linecap:round;stroke-linejoin:round;stroke-miterlimit:4;stroke-dasharray:none;stroke-dashoffset:0;stroke-opacity:1" />
      <path
         id="path4409"
         style="fill:#009641;fill-opacity:1;fill-rule:nonzero;stroke:none"
         d="m 264.57023,52.454754 4.24875,0 0,-10.2875 -4.24875,0 0,10.2875 z m 4.67625,3.51625 -5.1025,0 c -1.70375,0 -3.09,-1.38625 -3.09,-3.08875 l 0,-11.14375 c 0,-1.70375 1.38625,-3.08875 3.09,-3.08875 l 5.1025,0 c 1.70375,0 3.09,1.385 3.09,3.08875 l 0,11.14375 c 0,1.7025 -1.38625,3.08875 -3.09,3.08875" />
    </g>
    <g
       id="g4415"
       transform="matrix(1.25,0,0,-1.25,305.4898,5.476172)">
      <path
         d="m 0,0 3.069,0 c 0.11,0 0.207,0.096 0.207,0.207 l 0,5.755 c 0,0.11 -0.097,0.206 -0.207,0.206 l -13.755,0 c -0.11,0 -0.206,-0.096 -0.206,-0.206 l 0,-5.755 C -10.892,0.096 -10.796,0 -10.686,0 l 3.07,0 c 0.581,1.537 2.069,2.633 3.808,2.633 C -2.07,2.633 -0.582,1.537 0,0 m 3.069,-2.873 -4.244,0 c -0.793,0 -1.436,0.644 -1.436,1.437 0,0.66 -0.537,1.197 -1.197,1.197 -0.66,0 -1.197,-0.537 -1.197,-1.197 0,-0.793 -0.643,-1.437 -1.437,-1.437 l -4.244,0 c -1.697,0 -3.079,1.381 -3.079,3.08 l 0,5.755 c 0,1.698 1.382,3.079 3.079,3.079 l 13.755,0 c 1.698,0 3.08,-1.381 3.08,-3.079 l 0,-5.755 c 0,-1.699 -1.382,-3.08 -3.08,-3.08"
         style="fill:#8874b3;fill-opacity:1;fill-rule:nonzero;stroke:none"
         id="path4417" />
    </g>
  </g>
</svg>
